<svg xmlns="http://www.w3.org/2000/svg" viewBox="0 0 64 64" role="img" aria-label="Textory logo">
  <defs>
    <linearGradient id="g" x1="10" y1="6" x2="54" y2="58" gradientUnits="userSpaceOnUse">
      <stop stop-color="#5b8cff" stop-opacity="0.98"/>
      <stop offset="1" stop-color="#ff5b6a" stop-opacity="0.92"/>
    </linearGradient>
    <linearGradient id="shine" x1="18" y1="14" x2="46" y2="50" gradientUnits="userSpaceOnUse">
      <stop stop-color="#ffffff" stop-opacity="0.92"/>
      <stop offset="1" stop-color="#ffffff" stop-opacity="0.72"/>
    </linearGradient>
    <filter id="soft" x="-30%" y="-30%" width="160%" height="160%">
      <feDropShadow dx="0" dy="6" stdDeviation="4" flood-color="#000000" flood-opacity="0.25" />
    </filter>
  </defs>

  <!-- App tile -->
  <rect x="10" y="8" width="44" height="48" rx="12" fill="url(#g)" filter="url(#soft)"/>

  <!-- Document page -->
  <path
    d="M24 18h14l4 4v22a4 4 0 0 1-4 4H24a4 4 0 0 1-4-4V22a4 4 0 0 1 4-4z"
    fill="url(#shine)"
    fill-opacity="0.92"
  />

  <!-- Folded corner -->
  <path d="M38 18v6a2 2 0 0 0 2 2h6" fill="#ffffff" fill-opacity="0.55" />

  <!-- Text lines -->
  <path d="M24 30h16" stroke="#0d1324" stroke-opacity="0.45" stroke-width="2.4" stroke-linecap="round" />
  <path d="M24 36h14" stroke="#0d1324" stroke-opacity="0.38" stroke-width="2.4" stroke-linecap="round" />
  <path d="M24 42h10" stroke="#0d1324" stroke-opacity="0.30" stroke-width="2.4" stroke-linecap="round" />

  <!-- Small pen nib accent -->
  <path
    d="M41.5 40.5l5.6 5.6-2.3 2.3-5.6-5.6 1.2-2.3z"
    fill="#0d1324"
    fill-opacity="0.55"
  />
  <path
    d="M42.8 41.8l3.0 3.0"
    stroke="#ffffff"
    stroke-opacity="0.65"
    stroke-width="1.8"
    stroke-linecap="round"
  />
</svg>
